<?xml version="1.0" encoding="UTF-8" standalone="no"?>
<svg
   xmlns:dc="http://purl.org/dc/elements/1.1/"
   xmlns:cc="http://creativecommons.org/ns#"
   xmlns:rdf="http://www.w3.org/1999/02/22-rdf-syntax-ns#"
   xmlns:svg="http://www.w3.org/2000/svg"
   xmlns="http://www.w3.org/2000/svg"
   xmlns:sodipodi="http://sodipodi.sourceforge.net/DTD/sodipodi-0.dtd"
   xmlns:inkscape="http://www.inkscape.org/namespaces/inkscape"
   version="1.1"
   id="svg2"
   width="344"
   height="344"
   viewBox="0 0 344 344"
   sodipodi:docname="printer.svg"
   inkscape:version="1.0.1 (3bc2e813f5, 2020-09-07)">
  <metadata
     id="metadata8">
    <rdf:RDF>
      <cc:Work
         rdf:about="">
        <dc:format>image/svg+xml</dc:format>
        <dc:type
           rdf:resource="http://purl.org/dc/dcmitype/StillImage" />
        <dc:title></dc:title>
      </cc:Work>
    </rdf:RDF>
  </metadata>
  <defs
     id="defs6" />
  <sodipodi:namedview
     pagecolor="#ffffff"
     bordercolor="#666666"
     borderopacity="1"
     objecttolerance="10"
     gridtolerance="10"
     guidetolerance="10"
     inkscape:pageopacity="0"
     inkscape:pageshadow="2"
     inkscape:window-width="1366"
     inkscape:window-height="717"
     id="namedview4"
     showgrid="false"
     inkscape:snap-bbox="true"
     inkscape:bbox-nodes="true"
     inkscape:bbox-paths="true"
     inkscape:snap-bbox-edge-midpoints="true"
     inkscape:snap-bbox-midpoints="true"
     inkscape:zoom="0.66580455"
     inkscape:cx="-8.5483011"
     inkscape:cy="172.80178"
     inkscape:window-x="0"
     inkscape:window-y="22"
     inkscape:window-maximized="1"
     inkscape:current-layer="g10" />
  <g
     inkscape:groupmode="layer"
     inkscape:label="Image"
     id="g10"
     style="opacity:1">
    <rect
       style="fill:#ddddff;stroke-width:35.5238"
       id="rect26"
       width="344"
       height="344"
       x="0"
       y="0"
       ry="63.064526" />
    <path
       style="fill:#000000;stroke-width:0.89857"
       d="M 85.737317,286.16301 V 258.352 l -21.940047,-0.26929 -21.940048,-0.26929 -3.824843,-2.69571 c -2.103664,-1.48264 -4.765689,-4.47782 -5.915611,-6.65595 L 30.026,244.5015 30.04573,184.66331 c 0.01845,-55.93601 0.126444,-60.07309 1.656081,-63.44018 2.057997,-4.53013 7.136419,-9.04518 11.553525,-10.27181 1.886783,-0.52397 12.073933,-0.9448 22.938087,-0.94759 l 19.543891,-0.005 V 70.012368 30.026019 H 172 258.26269 v 39.986349 39.986352 l 19.54389,0.005 c 10.86415,0.003 21.0513,0.42362 22.93808,0.94758 4.41711,1.22664 9.49554,5.74168 11.55353,10.27181 1.52963,3.3671 1.63763,7.50418 1.65608,63.44019 l 0.0198,59.83819 -2.09076,3.96025 c -1.14993,2.17814 -3.81195,5.17332 -5.91562,6.65596 l -3.82484,2.69571 -21.94005,0.26929 -21.94005,0.26928 V 286.163 313.97401 H 172.00004 85.737353 V 286.16339 Z M 246.132,252.422 V 203.00067 H 172 97.868007 l -0.233498,48.52276 c -0.128424,26.68752 -0.03912,49.03056 0.198447,49.65121 0.342775,0.89547 15.694814,1.08097 74.365494,0.89857 l 73.93355,-0.22988 z m -127.63773,28.79507 c -1.21307,-1.21307 -2.20559,-3.05105 -2.20559,-4.0844 0,-1.03336 0.99252,-2.87134 2.20559,-4.08441 l 2.20557,-2.20558 H 172 223.30016 l 2.20558,2.20558 c 1.21306,1.21307 2.20558,3.05105 2.20558,4.08441 0,1.03335 -0.99252,2.87133 -2.20558,4.0844 l -2.20558,2.20559 H 172 120.69984 Z m -0.40845,-24.7515 c -0.98842,-0.98843 -1.79714,-2.80803 -1.79714,-4.04357 0,-1.23553 0.80872,-3.05513 1.79714,-4.04356 1.74311,-1.74311 2.99523,-1.79714 41.64422,-1.79714 37.46204,0 39.93609,0.0984 41.33421,1.64325 1.97386,2.18109 1.89138,6.69806 -0.15613,8.55103 -1.47685,1.33654 -5.66234,1.48713 -41.3342,1.48713 -38.49287,0 -39.7452,-0.0543 -41.4881,-1.79714 z m 0.40845,-24.66983 c -1.21307,-1.21307 -2.20559,-3.05105 -2.20559,-4.0844 0,-1.03336 0.99252,-2.87134 2.20559,-4.0844 l 2.20557,-2.20559 H 172 223.30016 l 2.20558,2.20559 c 1.21306,1.21306 2.20558,3.05104 2.20558,4.0844 0,1.03335 -0.99252,2.87133 -2.20558,4.0844 l -2.20558,2.20559 H 172 120.69984 Z M 85.525661,218.501 85.76329,190.86998 H 172 258.23672 l 0.23762,27.63102 0.23763,27.63102 18.41264,0.24393 c 21.05567,0.27896 22.86438,-0.0981 24.31526,-5.06883 0.63899,-2.18919 0.86195,-21.68736 0.67782,-59.27799 l -0.27438,-56.01575 -2.12132,-1.71735 C 297.65613,122.6236 294.31623,122.57869 172,122.57869 c -122.31623,0 -125.656125,0.0449 -127.721981,1.71734 l -2.121329,1.71735 -0.274375,56.01575 c -0.182376,37.23368 0.04163,57.09868 0.668075,59.24547 0.534421,1.83143 1.820302,3.65705 2.970083,4.21678 1.313854,0.63959 8.670356,0.92608 20.897597,0.81385 l 18.869962,-0.17321 z M 265.00196,164.05516 c -3.5176,-2.15067 -4.8317,-3.81264 -5.86594,-7.41882 -1.23568,-4.30858 0.35601,-9.11157 4.1126,-12.40989 5.99315,-5.26206 14.88911,-3.2433 18.49042,4.19603 1.32644,2.74005 1.70706,4.75006 1.30515,6.89239 -1.56347,8.33402 -11.12821,12.96753 -18.04223,8.74029 z M 246.36745,76.077713 246.132,42.156709 H 172 97.868007 L 97.63256,76.077713 97.397112,109.99872 H 172 246.60289 Z"
       id="path14" />
  </g>
</svg>
