<?xml version="1.0" encoding="UTF-8" standalone="no"?>
<svg
   xmlns:dc="http://purl.org/dc/elements/1.1/"
   xmlns:cc="http://creativecommons.org/ns#"
   xmlns:rdf="http://www.w3.org/1999/02/22-rdf-syntax-ns#"
   xmlns:svg="http://www.w3.org/2000/svg"
   xmlns="http://www.w3.org/2000/svg"
   xmlns:sodipodi="http://sodipodi.sourceforge.net/DTD/sodipodi-0.dtd"
   xmlns:inkscape="http://www.inkscape.org/namespaces/inkscape"
   version="1.1"
   id="svg2"
   width="85.333336"
   height="85.333336"
   viewBox="0 0 85.333336 85.333336"
   sodipodi:docname="window.svg"
   inkscape:export-filename="/home/nillkizz/Downloads/path16.png"
   inkscape:export-xdpi="102.375"
   inkscape:export-ydpi="102.375"
   inkscape:version="1.0.1 (3bc2e813f5, 2020-09-07)">
  <metadata
     id="metadata8">
    <rdf:RDF>
      <cc:Work
         rdf:about="">
        <dc:format>image/svg+xml</dc:format>
        <dc:type
           rdf:resource="http://purl.org/dc/dcmitype/StillImage" />
        <dc:title />
      </cc:Work>
    </rdf:RDF>
  </metadata>
  <defs
     id="defs6" />
  <sodipodi:namedview
     pagecolor="#ffffff"
     bordercolor="#666666"
     borderopacity="1"
     objecttolerance="10"
     gridtolerance="10"
     guidetolerance="10"
     inkscape:pageopacity="0"
     inkscape:pageshadow="2"
     inkscape:window-width="1366"
     inkscape:window-height="717"
     id="namedview4"
     showgrid="false"
     inkscape:zoom="3.1749222"
     inkscape:cx="24.367259"
     inkscape:cy="57.601925"
     inkscape:window-x="0"
     inkscape:window-y="22"
     inkscape:window-maximized="1"
     inkscape:current-layer="g10"
     inkscape:document-rotation="0"
     inkscape:lockguides="false"
     inkscape:object-nodes="true"
     inkscape:object-paths="false"
     showguides="true"
     inkscape:guide-bbox="true">
    <sodipodi:guide
       position="103.67628,42.53162"
       orientation="0,-1"
       id="guide902" />
    <sodipodi:guide
       position="42.520727,25.804319"
       orientation="1,0"
       id="guide904" />
  </sodipodi:namedview>
  <g
     inkscape:groupmode="layer"
     inkscape:label="Image"
     id="g10">
    <g
       inkscape:groupmode="layer"
       id="layer1"
       inkscape:label="Layer 1">
      <rect
         style="fill:#ddddff;fill-opacity:1;stroke:none;stroke-width:0.946712;stroke-miterlimit:4;stroke-dasharray:none"
         id="rect891"
         width="85.300003"
         height="85.300003"
         x="0"
         y="0"
         ry="14.697338" />
    </g>
    <g
       id="g14"
       style="display:inline"
       transform="translate(-0.0930803,-1.6699104)">
      <path
         style="fill:#d0d0d0;fill-opacity:1;stroke-width:1.33333"
         d="M 1.8726781,75.793992 C 1.283239,74.840258 1.506923,74.616574 2.4606554,75.206013 c 1.5370035,0.949921 2.0635535,2.127323 0.9513674,2.127323 -0.3233876,0 -1.0160927,-0.692706 -1.5393447,-1.539344 z m 80.1273249,0.20601 c 0.453225,-0.733333 1.124045,-1.333333 1.490712,-1.333333 0.366666,0 0.295846,0.6 -0.157379,1.333333 -0.453225,0.733334 -1.124045,1.333334 -1.490712,1.333334 -0.366667,0 -0.295847,-0.6 0.157379,-1.333334 z M 17.333334,21.333334 c 0,-0.977777 0.4,-1.377777 0.888889,-0.888889 0.488888,0.488889 0.488888,1.288889 0,1.777778 -0.488889,0.488888 -0.888889,0.08889 -0.888889,-0.888889 z m 10.666667,0 c 0,-0.977777 0.4,-1.377777 0.888889,-0.888889 0.488888,0.488889 0.488888,1.288889 0,1.777778 -0.488889,0.488888 -0.888889,0.08889 -0.888889,-0.888889 z m 10.666667,0 c 0,-0.977777 0.4,-1.377777 0.888889,-0.888889 0.488888,0.488889 0.488888,1.288889 0,1.777778 -0.488889,0.488888 -0.888889,0.08889 -0.888889,-0.888889 z"
         id="path24" />
      <path
         style="fill:#8c8c8c;fill-opacity:1;stroke-width:1.33333"
         d="M 2.0000001,13.333334 C 2.453225,12.6 3.1240454,12 3.4907121,12 c 0.3666667,0 0.2958463,0.6 -0.1573787,1.333334 -0.4532249,0.733333 -1.1240453,1.333333 -1.490712,1.333333 -0.3666667,0 -0.2958463,-0.6 0.1573787,-1.333333 z M 81.87268,13.127322 c -0.589439,-0.953732 -0.365755,-1.177416 0.587979,-0.587977 1.537002,0.949921 2.063553,2.127322 0.951366,2.127322 -0.323388,0 -1.016092,-0.692705 -1.539345,-1.539345 z"
         id="path20" />
      <path
         style="fill:#606060;fill-opacity:1;stroke-width:1.33333"
         d="m 25.000001,77.670141 c 9.716667,-0.227813 25.616667,-0.227813 35.333334,0 9.716667,0.227812 1.766667,0.414205 -17.666667,0.414205 -19.433334,0 -27.383334,-0.186393 -17.666667,-0.414205 z M 3.1999217,51.333335 c 0.00187,-11 0.208382,-15.322577 0.45892,-9.605726 0.2505382,5.716851 0.2490098,14.716851 -0.0034,20.000001 -0.2524023,5.283149 -0.4573879,0.605725 -0.45552,-10.394275 z m 78.6666693,0 c 0.0019,-11 0.208382,-15.322577 0.45892,-9.605726 0.250538,5.716851 0.24901,14.716851 -0.0033,20.000001 -0.252468,5.283149 -0.457454,0.605725 -0.455586,-10.394275 z M 3.1998046,27.466158 C 2.7972042,26.416998 2.7226488,23.857911 3.0341258,21.779298 3.5103661,18.601153 3.6322252,18.795323 3.800224,23.000001 l 0.1997761,5 h 38.5861809 38.58618 l 0.553614,-4.678206 0.553613,-4.678204 -0.139792,5.011538 -0.139793,5.011539 -39.034099,0.353526 C 10.108164,29.317784 3.8159811,29.071888 3.1998046,27.466158 Z M 25.000001,13.670139 c 9.716667,-0.227813 25.616667,-0.227813 35.333334,0 9.716667,0.227812 1.766667,0.414205 -17.666667,0.414205 -19.433334,0 -27.383334,-0.186393 -17.666667,-0.414205 z"
         id="path18" />
      <path
         style="fill:#333333;fill-opacity:1;stroke-width:1.33333"
         d="M 2.0756054,74.369994 C 0.36231626,71.923932 0,66.676571 0,44.309387 0,17.317229 0.01269453,17.199427 3.2727274,13.939394 L 6.5454547,10.666667 H 42.666668 78.787881 l 3.272728,3.272727 c 3.260032,3.260033 3.272727,3.377835 3.272727,30.369993 0,22.367184 -0.362316,27.614545 -2.075605,30.060607 -2.063418,2.94594 -2.301771,2.963342 -40.591063,2.963342 -38.2892915,0 -38.5276453,-0.0174 -40.5910626,-2.963342 z M 81.286424,72.087657 c 0.763783,-1.427141 1.380245,-10.955298 1.380245,-21.333334 V 32.000001 H 42.666668 2.6666668 v 18.754322 c 0,10.378036 0.616462,19.906193 1.3802451,21.333334 1.3140299,2.455288 3.1667509,2.579012 38.6197561,2.579012 35.453005,0 37.305726,-0.12372 38.619756,-2.579012 z m 1.122871,-48.345031 c 0.297,-3.573096 -0.343167,-5.6765 -2.333334,-7.666667 C 77.448664,13.448662 75.875596,13.333334 42.666668,13.333334 9.777778,13.333334 7.8632481,13.470086 5.3333335,16 2.7391834,18.59415 1.6224913,26.511381 3.5753104,28.4642 4.0750644,28.963954 21.925065,29.213954 43.241979,29.019756 L 82.000003,28.666668 Z M 11.333334,22.666667 c -1.231073,-1.991917 0.481832,-4 3.412022,-4 1.699089,0 2.587978,0.915916 2.587978,2.666667 0,2.828079 -4.463215,3.819904 -6,1.333333 z m 10.666667,0 c -1.231074,-1.991917 0.481833,-4 3.412022,-4 1.699089,0 2.587978,0.915916 2.587978,2.666667 0,2.828079 -4.463215,3.819904 -6,1.333333 z m 10.666667,0 c -1.231074,-1.991917 0.481833,-4 3.412022,-4 1.699089,0 2.587978,0.915916 2.587978,2.666667 0,2.828079 -4.463215,3.819904 -6,1.333333 z"
         id="path16"
         inkscape:export-xdpi="102.375"
         inkscape:export-ydpi="102.375" />
    </g>
  </g>
</svg>
